<mxfile host="app.diagrams.net" agent="Mozilla/5.0 (X11; Linux x86_64) AppleWebKit/537.36 (KHTML, like Gecko) Chrome/115.0.0.0 Safari/537.36" version="24.7.7">
  <diagram name="Page-1" id="4pbEtkXK02rOW50-2azw">
    <mxGraphModel dx="606" dy="323" grid="1" gridSize="10" guides="1" tooltips="1" connect="1" arrows="1" fold="1" page="1" pageScale="1" pageWidth="850" pageHeight="1100" math="0" shadow="0">
      <root>
        <mxCell id="0" />
        <mxCell id="1" parent="0" />
        <mxCell id="rDBd-iJu_m673Sh-gbyy-1" value="" style="ellipse;whiteSpace=wrap;html=1;" vertex="1" parent="1">
          <mxGeometry x="136" y="20" width="80" height="40" as="geometry" />
        </mxCell>
        <mxCell id="rDBd-iJu_m673Sh-gbyy-2" value="Start" style="text;html=1;align=center;verticalAlign=middle;resizable=0;points=[];autosize=1;strokeColor=none;fillColor=none;" vertex="1" parent="1">
          <mxGeometry x="151" y="25" width="50" height="30" as="geometry" />
        </mxCell>
        <mxCell id="rDBd-iJu_m673Sh-gbyy-3" value="" style="endArrow=classic;html=1;rounded=0;exitX=0.5;exitY=1;exitDx=0;exitDy=0;" edge="1" parent="1" source="rDBd-iJu_m673Sh-gbyy-1">
          <mxGeometry width="50" height="50" relative="1" as="geometry">
            <mxPoint x="486" y="160" as="sourcePoint" />
            <mxPoint x="176" y="80" as="targetPoint" />
          </mxGeometry>
        </mxCell>
        <mxCell id="rDBd-iJu_m673Sh-gbyy-4" value="" style="rounded=0;whiteSpace=wrap;html=1;" vertex="1" parent="1">
          <mxGeometry x="136" y="80" width="80" height="30" as="geometry" />
        </mxCell>
        <mxCell id="rDBd-iJu_m673Sh-gbyy-5" value="N = 0" style="text;html=1;align=center;verticalAlign=middle;resizable=0;points=[];autosize=1;strokeColor=none;fillColor=none;" vertex="1" parent="1">
          <mxGeometry x="151" y="80" width="50" height="30" as="geometry" />
        </mxCell>
        <mxCell id="rDBd-iJu_m673Sh-gbyy-18" value="" style="rhombus;whiteSpace=wrap;html=1;" vertex="1" parent="1">
          <mxGeometry x="131" y="130" width="90" height="50" as="geometry" />
        </mxCell>
        <mxCell id="rDBd-iJu_m673Sh-gbyy-19" value="N is Odd" style="text;html=1;align=center;verticalAlign=middle;resizable=0;points=[];autosize=1;strokeColor=none;fillColor=none;" vertex="1" parent="1">
          <mxGeometry x="141" y="140" width="70" height="30" as="geometry" />
        </mxCell>
        <mxCell id="rDBd-iJu_m673Sh-gbyy-25" value="" style="endArrow=classic;html=1;rounded=0;exitX=0.5;exitY=1;exitDx=0;exitDy=0;" edge="1" parent="1">
          <mxGeometry width="50" height="50" relative="1" as="geometry">
            <mxPoint x="175.86" y="110" as="sourcePoint" />
            <mxPoint x="175.86" y="130" as="targetPoint" />
          </mxGeometry>
        </mxCell>
        <mxCell id="rDBd-iJu_m673Sh-gbyy-27" value="" style="endArrow=classic;html=1;rounded=0;exitX=0.5;exitY=1;exitDx=0;exitDy=0;entryX=0;entryY=0.5;entryDx=0;entryDy=0;" edge="1" parent="1" target="rDBd-iJu_m673Sh-gbyy-29">
          <mxGeometry width="50" height="50" relative="1" as="geometry">
            <mxPoint x="221" y="154.66" as="sourcePoint" />
            <mxPoint x="241" y="154.66" as="targetPoint" />
          </mxGeometry>
        </mxCell>
        <mxCell id="rDBd-iJu_m673Sh-gbyy-29" value="" style="shape=parallelogram;perimeter=parallelogramPerimeter;whiteSpace=wrap;html=1;fixedSize=1;" vertex="1" parent="1">
          <mxGeometry x="237" y="135" width="90" height="40" as="geometry" />
        </mxCell>
        <mxCell id="rDBd-iJu_m673Sh-gbyy-31" value="Print N" style="text;html=1;align=center;verticalAlign=middle;resizable=0;points=[];autosize=1;strokeColor=none;fillColor=none;" vertex="1" parent="1">
          <mxGeometry x="252" y="140" width="60" height="30" as="geometry" />
        </mxCell>
        <mxCell id="rDBd-iJu_m673Sh-gbyy-33" value="" style="rhombus;whiteSpace=wrap;html=1;" vertex="1" parent="1">
          <mxGeometry x="15" y="130" width="90" height="50" as="geometry" />
        </mxCell>
        <mxCell id="rDBd-iJu_m673Sh-gbyy-34" value="N is Even" style="text;html=1;align=center;verticalAlign=middle;resizable=0;points=[];autosize=1;strokeColor=none;fillColor=none;" vertex="1" parent="1">
          <mxGeometry x="25" y="140" width="70" height="30" as="geometry" />
        </mxCell>
        <mxCell id="rDBd-iJu_m673Sh-gbyy-35" value="" style="endArrow=classic;html=1;rounded=0;exitX=0.5;exitY=1;exitDx=0;exitDy=0;" edge="1" parent="1">
          <mxGeometry width="50" height="50" relative="1" as="geometry">
            <mxPoint x="59.660000000000025" y="180" as="sourcePoint" />
            <mxPoint x="59.660000000000025" y="200" as="targetPoint" />
          </mxGeometry>
        </mxCell>
        <mxCell id="rDBd-iJu_m673Sh-gbyy-49" value="" style="edgeStyle=orthogonalEdgeStyle;rounded=0;orthogonalLoop=1;jettySize=auto;html=1;" edge="1" parent="1" source="rDBd-iJu_m673Sh-gbyy-36" target="rDBd-iJu_m673Sh-gbyy-43">
          <mxGeometry relative="1" as="geometry" />
        </mxCell>
        <mxCell id="rDBd-iJu_m673Sh-gbyy-51" value="" style="edgeStyle=orthogonalEdgeStyle;rounded=0;orthogonalLoop=1;jettySize=auto;html=1;entryX=0;entryY=0.5;entryDx=0;entryDy=0;" edge="1" parent="1" source="rDBd-iJu_m673Sh-gbyy-36" target="rDBd-iJu_m673Sh-gbyy-42">
          <mxGeometry relative="1" as="geometry">
            <Array as="points" />
          </mxGeometry>
        </mxCell>
        <mxCell id="rDBd-iJu_m673Sh-gbyy-36" value="" style="shape=parallelogram;perimeter=parallelogramPerimeter;whiteSpace=wrap;html=1;fixedSize=1;" vertex="1" parent="1">
          <mxGeometry x="10" y="200" width="90" height="40" as="geometry" />
        </mxCell>
        <mxCell id="rDBd-iJu_m673Sh-gbyy-37" value="Print N" style="text;html=1;align=center;verticalAlign=middle;resizable=0;points=[];autosize=1;strokeColor=none;fillColor=none;" vertex="1" parent="1">
          <mxGeometry x="25" y="205" width="60" height="30" as="geometry" />
        </mxCell>
        <mxCell id="rDBd-iJu_m673Sh-gbyy-41" value="" style="endArrow=classic;html=1;rounded=0;exitX=0.5;exitY=1;exitDx=0;exitDy=0;entryX=1;entryY=0.5;entryDx=0;entryDy=0;" edge="1" parent="1" target="rDBd-iJu_m673Sh-gbyy-42">
          <mxGeometry width="50" height="50" relative="1" as="geometry">
            <mxPoint x="281.83000000000004" y="175" as="sourcePoint" />
            <mxPoint x="281.83000000000004" y="195" as="targetPoint" />
            <Array as="points">
              <mxPoint x="282" y="220" />
            </Array>
          </mxGeometry>
        </mxCell>
        <mxCell id="rDBd-iJu_m673Sh-gbyy-42" value="" style="ellipse;whiteSpace=wrap;html=1;" vertex="1" parent="1">
          <mxGeometry x="136" y="200" width="80" height="40" as="geometry" />
        </mxCell>
        <mxCell id="rDBd-iJu_m673Sh-gbyy-43" value="Stop" style="text;html=1;align=center;verticalAlign=middle;resizable=0;points=[];autosize=1;strokeColor=none;fillColor=none;" vertex="1" parent="1">
          <mxGeometry x="151" y="205" width="50" height="30" as="geometry" />
        </mxCell>
        <mxCell id="rDBd-iJu_m673Sh-gbyy-47" value="" style="endArrow=classic;html=1;rounded=0;exitX=0.5;exitY=1;exitDx=0;exitDy=0;entryX=0;entryY=0.5;entryDx=0;entryDy=0;" edge="1" parent="1">
          <mxGeometry width="50" height="50" relative="1" as="geometry">
            <mxPoint x="131" y="155.17" as="sourcePoint" />
            <mxPoint x="106" y="154.82999999999998" as="targetPoint" />
          </mxGeometry>
        </mxCell>
      </root>
    </mxGraphModel>
  </diagram>
</mxfile>
